<svg width="1100" height="300" viewBox="0 0 1100 300" fill="none" xmlns="http://www.w3.org/2000/svg" role="img" aria-labelledby="title desc">
  <title id="title">FPGA SoPC review motion banner</title>
  <desc id="desc">Animated SVG banner for Verilog, Avalon-MM, Nios II C and Typst documentation.</desc>
  <defs>
    <linearGradient id="bg" x1="0" y1="0" x2="1100" y2="300">
      <stop offset="0" stop-color="#08111f"/>
      <stop offset="0.48" stop-color="#0f172a"/>
      <stop offset="1" stop-color="#102a43"/>
    </linearGradient>
    <linearGradient id="pulse" x1="0" y1="0" x2="1" y2="0">
      <stop offset="0" stop-color="#22d3ee"/>
      <stop offset="0.5" stop-color="#60a5fa"/>
      <stop offset="1" stop-color="#f59e0b"/>
    </linearGradient>
    <filter id="glow" x="-40%" y="-40%" width="180%" height="180%">
      <feGaussianBlur stdDeviation="5" result="blur"/>
      <feMerge>
        <feMergeNode in="blur"/>
        <feMergeNode in="SourceGraphic"/>
      </feMerge>
    </filter>
    <style>
      .title { font: 800 46px Segoe UI, Arial, sans-serif; fill: #ffffff; letter-spacing: 0; }
      .label { font: 700 20px Segoe UI, Arial, sans-serif; fill: #e5f4ff; letter-spacing: 0; }
      .small { font: 650 16px Segoe UI, Arial, sans-serif; fill: #a7c7e7; letter-spacing: 0; }
      .mono { font: 700 15px Consolas, monospace; fill: #a7f3d0; }
      .chip { fill: rgba(15, 23, 42, 0.88); stroke: #38bdf8; stroke-width: 1.2; }
      .bus { stroke: url(#pulse); stroke-width: 5; stroke-linecap: round; stroke-dasharray: 18 14; animation: dash 2.4s linear infinite; filter: url(#glow); }
      .spark { fill: #fbbf24; filter: url(#glow); animation: blink 1.8s ease-in-out infinite; }
      .node { fill: #0f766e; stroke: #5eead4; stroke-width: 2; animation: breathe 2.6s ease-in-out infinite; }
      @keyframes dash { to { stroke-dashoffset: -64; } }
      @keyframes blink { 0%, 100% { opacity: .35; transform: scale(.9); } 50% { opacity: 1; transform: scale(1.12); } }
      @keyframes breathe { 0%, 100% { opacity: .85; } 50% { opacity: 1; } }
    </style>
  </defs>
  <rect width="1100" height="300" rx="26" fill="url(#bg)"/>
  <g opacity="0.22">
    <path d="M80 45h940M80 255h940M100 25v250M1000 25v250" stroke="#5eead4"/>
    <circle cx="126" cy="74" r="3" fill="#38bdf8"/>
    <circle cx="254" cy="224" r="3" fill="#f59e0b"/>
    <circle cx="844" cy="72" r="3" fill="#38bdf8"/>
    <circle cx="952" cy="222" r="3" fill="#f59e0b"/>
  </g>
  <text x="58" y="54" class="mono">He thong nhung FPGA review workspace</text>
  <text x="58" y="105" class="title">Verilog IP -> Avalon-MM -> Nios II C</text>
  <text x="58" y="136" class="small">Quartus Prime - Platform Designer - PIO - Timer - DMA - Typst notes</text>
  <path class="bus" d="M155 204 H950"/>
  <g transform="translate(120 162)">
    <rect class="chip" width="144" height="78" rx="14"/>
    <text x="24" y="35" class="label">Verilog</text>
    <text x="24" y="58" class="small">Custom IP</text>
    <circle class="spark" cx="114" cy="30" r="6"/>
  </g>
  <g transform="translate(330 162)">
    <rect class="chip" width="154" height="78" rx="14"/>
    <text x="24" y="35" class="label">Avalon-MM</text>
    <text x="24" y="58" class="small">PIO Timer DMA</text>
    <circle class="spark" cx="124" cy="30" r="6" style="animation-delay:.35s"/>
  </g>
  <g transform="translate(560 162)">
    <rect class="chip" width="144" height="78" rx="14"/>
    <text x="24" y="35" class="label">Nios II</text>
    <text x="24" y="58" class="small">Bare C</text>
    <circle class="spark" cx="114" cy="30" r="6" style="animation-delay:.7s"/>
  </g>
  <g transform="translate(780 162)">
    <rect class="chip" width="144" height="78" rx="14"/>
    <text x="24" y="35" class="label">Typst</text>
    <text x="24" y="58" class="small">Review doc</text>
    <circle class="spark" cx="114" cy="30" r="6" style="animation-delay:1.05s"/>
  </g>
  <circle class="node" cx="155" cy="204" r="8"/>
  <circle class="node" cx="330" cy="204" r="8"/>
  <circle class="node" cx="484" cy="204" r="8"/>
  <circle class="node" cx="560" cy="204" r="8"/>
  <circle class="node" cx="704" cy="204" r="8"/>
  <circle class="node" cx="780" cy="204" r="8"/>
  <circle class="node" cx="950" cy="204" r="8"/>
  <text x="58" y="272" class="small">DE10-Standard | hardware-software integration | reviewer-ready evidence</text>
</svg>
