<svg width="960" height="300" viewBox="0 0 960 300" fill="none" xmlns="http://www.w3.org/2000/svg" role="img" aria-labelledby="title desc">
  <title id="title">Animated FPGA SoPC review pipeline</title>
  <desc id="desc">Motion graphic showing Verilog custom IP, Avalon-MM interconnect, Nios II firmware, and review documentation.</desc>
  <defs>
    <linearGradient id="bg" x1="0" y1="0" x2="960" y2="300">
      <stop offset="0" stop-color="#08111f"/>
      <stop offset="0.45" stop-color="#0f172a"/>
      <stop offset="1" stop-color="#102a43"/>
    </linearGradient>
    <linearGradient id="pulse" x1="0" y1="0" x2="1" y2="0">
      <stop offset="0" stop-color="#22d3ee"/>
      <stop offset="0.5" stop-color="#60a5fa"/>
      <stop offset="1" stop-color="#f59e0b"/>
    </linearGradient>
    <filter id="glow" x="-40%" y="-40%" width="180%" height="180%">
      <feGaussianBlur stdDeviation="5" result="blur"/>
      <feMerge>
        <feMergeNode in="blur"/>
        <feMergeNode in="SourceGraphic"/>
      </feMerge>
    </filter>
    <style>
      .label { font: 700 22px Inter, Segoe UI, Arial, sans-serif; fill: #e5f4ff; letter-spacing: 0; }
      .small { font: 600 14px Inter, Segoe UI, Arial, sans-serif; fill: #a7c7e7; letter-spacing: 0; }
      .chip { fill: rgba(15, 23, 42, 0.88); stroke: #38bdf8; stroke-width: 1.2; }
      .bus { stroke: url(#pulse); stroke-width: 5; stroke-linecap: round; stroke-dasharray: 18 14; animation: dash 2.4s linear infinite; filter: url(#glow); }
      .spark { fill: #fbbf24; filter: url(#glow); animation: blink 1.8s ease-in-out infinite; }
      .node { fill: #0f766e; stroke: #5eead4; stroke-width: 2; animation: breathe 2.6s ease-in-out infinite; }
      .node:nth-of-type(2n) { animation-delay: .4s; }
      .node:nth-of-type(3n) { animation-delay: .8s; }
      @keyframes dash { to { stroke-dashoffset: -64; } }
      @keyframes blink { 0%, 100% { opacity: .35; transform: scale(.9); } 50% { opacity: 1; transform: scale(1.12); } }
      @keyframes breathe { 0%, 100% { opacity: .85; } 50% { opacity: 1; } }
    </style>
  </defs>
  <rect width="960" height="300" rx="24" fill="url(#bg)"/>
  <g opacity="0.22">
    <path d="M80 45h800M80 255h800M100 25v250M860 25v250" stroke="#5eead4"/>
    <circle cx="126" cy="74" r="3" fill="#38bdf8"/>
    <circle cx="214" cy="224" r="3" fill="#f59e0b"/>
    <circle cx="744" cy="72" r="3" fill="#38bdf8"/>
    <circle cx="812" cy="222" r="3" fill="#f59e0b"/>
  </g>
  <text x="54" y="52" class="small">Embedded Systems FPGA Review Labs</text>
  <text x="54" y="86" class="label">Verilog IP -> Avalon-MM SoPC -> Nios II C -> Review Evidence</text>
  <path class="bus" d="M150 166 H810"/>
  <g transform="translate(92 120)">
    <rect class="chip" width="150" height="92" rx="14"/>
    <text x="24" y="38" class="label">Verilog</text>
    <text x="24" y="64" class="small">Custom IP</text>
    <circle class="spark" cx="118" cy="31" r="6"/>
  </g>
  <g transform="translate(305 120)">
    <rect class="chip" width="158" height="92" rx="14"/>
    <text x="24" y="38" class="label">Avalon-MM</text>
    <text x="24" y="64" class="small">PIO / Timer / DMA</text>
    <circle class="spark" cx="126" cy="31" r="6" style="animation-delay:.35s"/>
  </g>
  <g transform="translate(526 120)">
    <rect class="chip" width="150" height="92" rx="14"/>
    <text x="24" y="38" class="label">Nios II</text>
    <text x="24" y="64" class="small">Bare-metal C</text>
    <circle class="spark" cx="118" cy="31" r="6" style="animation-delay:.7s"/>
  </g>
  <g transform="translate(738 120)">
    <rect class="chip" width="150" height="92" rx="14"/>
    <text x="24" y="38" class="label">Typst</text>
    <text x="24" y="64" class="small">Review notes</text>
    <circle class="spark" cx="118" cy="31" r="6" style="animation-delay:1.05s"/>
  </g>
  <circle class="node" cx="150" cy="166" r="8"/>
  <circle class="node" cx="305" cy="166" r="8"/>
  <circle class="node" cx="463" cy="166" r="8"/>
  <circle class="node" cx="526" cy="166" r="8"/>
  <circle class="node" cx="676" cy="166" r="8"/>
  <circle class="node" cx="738" cy="166" r="8"/>
  <circle class="node" cx="810" cy="166" r="8"/>
  <text x="54" y="262" class="small">Quartus Prime • Platform Designer/Qsys • DE10-Standard • Hardware/software integration • Exam-ready documentation</text>
</svg>
